<mxfile host="app.diagrams.net" modified="2023-12-25T06:46:48.634Z" agent="Mozilla/5.0 (Windows NT 10.0; Win64; x64) AppleWebKit/537.36 (KHTML, like Gecko) Chrome/120.0.0.0 Safari/537.36 Edg/120.0.0.0" version="22.1.11" etag="NtXeRwjaLs-MtXVNmsht" type="github">
  <diagram name="Страница — 1" id="QPd6E_CsAfzpZx7FReaH">
    <mxGraphModel>
      <root>
        <mxCell id="0" />
        <mxCell id="1" parent="0" />
      </root>
    </mxGraphModel>
  </diagram>
</mxfile>
